PathFileType	4	(X/Y/Z)	c:/Users/goper/Files/vsCode/490R/osim_files/C11/C11_Slow_03.trc
DataRate	CameraRate	NumFrames	NumMarkers	Units                	OrigDataRate	OrigDataStartFrame	OrigNumFrames
120.00	120.00	4	36	mm	120.0	678	1354
                Frame#	Time	LPSIS			LASIS			LTH1			LTH2			LTH3			LTH4			LLFE			LMFE			LSH1			LSH2			LSH3			LSH4			LLMAL			LMMAL			LCAL			LMTP5			LTOE			LMTP1			RPSIS			RASIS			RTH1			RTH2			RTH3			RTH4			RLFE			RMFE			RSH1			RSH2			RSH3			RSH4			RLMAL			RMMAL			RCAL			RMTP1			RTOE			RMTP5		
		X1	Y1	Z1	X2	Y2	Z2	X3	Y3	Z3	X4	Y4	Z4	X5	Y5	Z5	X6	Y6	Z6	X7	Y7	Z7	X8	Y8	Z8	X9	Y9	Z9	X10	Y10	Z10	X11	Y11	Z11	X12	Y12	Z12	X13	Y13	Z13	X14	Y14	Z14	X15	Y15	Z15	X16	Y16	Z16	X17	Y17	Z17	X18	Y18	Z18	X19	Y19	Z19	X20	Y20	Z20	X21	Y21	Z21	X22	Y22	Z22	X23	Y23	Z23	X24	Y24	Z24	X25	Y25	Z25	X26	Y26	Z26	X27	Y27	Z27	X28	Y28	Z28	X29	Y29	Z29	X30	Y30	Z30	X31	Y31	Z31	X32	Y32	Z32	X33	Y33	Z33	X34	Y34	Z34	X35	Y35	Z35	X36	Y36	Z36

678	5.64167	362.92535	969.76678	392.37891	186.61858	970.79401	464.65088	304.24786	576.17957	496.46252	301.34000	528.51642	496.03229	247.33554	573.29156	516.06525	251.89786	527.22046	509.92484	0.00000	0.00000	0.00000	291.72711	466.20425	502.86066	392.41345	435.27289	512.69568	426.78284	407.06830	512.26343	357.51538	385.15118	519.10419	397.02512	363.72830	517.79913	628.79181	221.74905	463.13922	593.23950	216.64621	371.86389	684.43317	259.39597	407.45200	625.35510	94.74125	475.78275	561.95673	64.03409	408.46298	593.40826	85.61064	363.37460	359.79715	986.33185	309.64761	191.72690	969.94818	233.50203	162.08109	617.59070	204.68964	144.39162	578.77386	214.81445	103.34670	637.98816	214.34789	95.02363	596.47784	221.77618	96.94015	509.61459	237.78215	122.52894	492.30045	348.05457	146.50366	394.20322	223.20512	138.60123	349.43698	227.85309	84.47279	398.60858	233.27870	84.80970	350.95215	235.23914	111.47031	96.31965	286.23764	77.61874	107.33326	381.98703	168.55396	61.67156	346.73624	-48.24645	49.67122	353.75974	-48.87149	63.70673	303.64777	-3.57252	40.98357	245.59547
679	5.65000	354.31293	970.44690	391.93582	178.44098	971.82977	463.86658	288.14450	575.43878	495.51846	283.87363	527.69037	495.16968	231.06636	573.51782	515.78766	234.59702	527.44092	509.54593	0.00000	0.00000	0.00000	272.62711	466.31769	502.77502	372.09628	437.08823	512.50769	407.27979	409.62549	512.36078	337.99420	386.25012	518.91040	377.94968	365.51300	517.80072	611.81555	230.33536	464.01532	576.90356	223.12399	372.27179	665.59949	270.82437	408.54382	614.56714	103.19853	476.85443	553.38922	64.84453	409.53421	583.62494	91.81902	365.02667	350.91199	987.40668	309.17596	183.10812	971.56110	232.90523	156.07401	618.37323	204.03294	138.72571	579.36371	214.12650	97.46165	638.19611	213.32884	89.27233	596.69037	221.19604	92.49097	509.61047	237.17915	117.59188	492.76999	347.68356	143.95325	394.97079	223.73138	136.35898	349.91830	228.38795	81.56741	398.33759	232.81514	82.55383	350.75327	234.91576	111.41619	96.40765	286.24771	77.63670	107.28246	381.93192	168.58195	61.68675	346.73740	-48.22577	49.54530	353.74841	-48.86317	63.57969	303.61682	-3.57148	40.96197	245.53848
680	5.65833	345.89084	971.32812	391.43274	170.33711	972.99634	463.20551	271.75272	575.07727	494.56613	266.58054	527.43286	494.14725	214.96512	574.19019	515.51093	217.07904	527.97595	508.82874	0.00000	0.00000	0.00000	253.51006	467.09271	502.79541	351.86990	438.96460	512.32599	387.02316	411.97144	512.38324	318.43973	387.64297	518.73505	358.67346	367.40158	517.73492	593.78619	237.92534	464.64539	559.85864	228.72908	372.72336	645.88000	281.12613	409.23505	602.14856	110.76605	477.82083	544.23926	65.83710	410.82898	573.10901	97.38964	366.62241	342.38715	988.75018	308.66904	174.53107	973.29095	232.51265	150.34729	619.21722	203.24081	133.38385	580.06067	213.42908	91.53220	638.48181	212.77689	83.72002	596.80170	220.58228	88.27438	509.52563	236.66524	113.38436	493.14505	347.23984	141.55498	395.49097	224.03680	134.36378	350.31454	228.76685	78.94410	398.13635	232.26630	80.50280	350.47305	234.57329	111.37730	96.48226	286.33496	77.63723	107.29495	381.90521	168.57732	61.67194	346.74103	-48.21907	49.47512	353.73657	-48.88310	63.49214	303.59900	-3.57467	40.95677	245.50758
681	5.66667	337.93130	972.48883	390.87833	162.03224	974.46381	462.61951	255.51544	575.17841	493.47168	249.44295	527.69910	493.12442	199.00388	575.42761	515.19879	200.04939	529.11554	508.42676	0.00000	0.00000	0.00000	234.06178	468.02139	502.60742	331.77042	440.94977	512.14417	367.10266	414.23065	512.42609	298.79877	389.40402	518.50055	339.21075	369.35638	517.53088	575.49969	244.53470	465.09189	542.42651	233.25639	373.25208	626.05151	289.33820	409.51971	588.86627	117.98924	479.21262	533.58081	69.64410	412.47214	561.52490	102.11559	368.18030	333.93869	990.19208	308.16083	166.04662	974.94165	231.85704	144.79523	620.10834	202.49765	128.44635	580.78387	212.72363	85.90466	638.78314	212.26393	78.64397	596.84277	220.02222	84.50939	509.51996	236.10797	110.16763	493.46286	346.61380	139.21799	395.81299	224.11681	132.50543	350.62363	228.87245	76.54713	397.78702	231.76314	78.65982	350.31842	234.05229	111.40916	96.56460	286.34647	77.53874	107.32870	381.85071	168.55827	61.67941	346.73462	-48.26557	49.47509	353.72369	-48.89871	63.42355	303.60037	-3.55874	40.93987	245.47911
